<?xml version="1.0" standalone="no"?>
<!DOCTYPE svg PUBLIC "-//W3C//DTD SVG 20010904//EN"
 "http://www.w3.org/TR/2001/REC-SVG-20010904/DTD/svg10.dtd">
<svg version="1.0" xmlns="http://www.w3.org/2000/svg"
 width="192.000000pt" height="192.000000pt" viewBox="0 0 192.000000 192.000000"
 preserveAspectRatio="xMidYMid meet">
<g transform="translate(0.000000,192.000000) scale(0.100000,-0.100000)"
fill="#000000" stroke="none">
<path d="M595 1828 c22 -11 41 -22 43 -23 2 -2 -179 -639 -410 -1437 -67 -234
-72 -247 -99 -259 -16 -6 -29 -15 -29 -20 0 -5 88 -7 195 -6 107 1 195 5 195
10 0 4 -12 13 -26 19 -19 9 -24 17 -20 32 40 158 161 586 166 586 4 0 102
-279 210 -600 l15 -45 130 -3 131 -3 109 385 c60 212 113 382 118 379 5 -3 6
-161 2 -384 l-8 -379 132 0 131 0 0 535 0 535 -212 0 -213 0 -52 -168 c-29
-92 -73 -241 -99 -332 -25 -91 -49 -168 -53 -173 -6 -6 -203 590 -218 659 -3
12 40 158 95 325 55 167 103 314 107 325 3 14 24 30 53 42 l47 20 -240 1 -240
0 40 -21z"/>
</g>
</svg>
